<?xml version="1.0" encoding="UTF-8"?>
<svg width="92px" height="70px" viewBox="0 0 92 70" version="1.1" xmlns="http://www.w3.org/2000/svg" xmlns:xlink="http://www.w3.org/1999/xlink">
    <!-- Generator: Sketch 45.2 (43514) - http://www.bohemiancoding.com/sketch -->
    <title>pattern</title>
    <desc>Created with Sketch.</desc>
    <defs></defs>
    <g id="Page-1" stroke="none" stroke-width="1" fill="none" fill-rule="evenodd">
        <g id="pattern" fill-rule="nonzero" fill="#E6E6E6">
            <path d="M88.22,12.57 C88.15,13.74 88.09,14.88 88.02,16.03 C87.78,19.8566667 87.5333333,23.68 87.28,27.5 C86.9933333,31.9533333 86.71,36.4066667 86.43,40.86 C86.1966667,44.5533333 85.9633333,48.2466667 85.73,51.94 C85.46,56.13 85.22,60.33 84.93,64.52 C84.6492772,67.042707 82.6285038,69.0174587 80.1,69.24 C79.73,69.24 79.36,69.24 78.99,69.24 C69.19,69.24 59.3866667,69.24 49.58,69.24 C48.6221126,69.2612569 47.6707806,69.0771281 46.79,68.7 L47.01,68.58 C48.4655917,67.8335835 49.5685513,66.5438034 50.08,64.99 C50.363958,64.1178465 50.5419045,63.214684 50.61,62.3 C50.71,60.5 50.69,58.69 50.72,56.88 C50.7568226,54.2201606 50.5019672,51.564299 49.96,48.96 C48.7727174,42.7566103 45.8893251,37.0036716 41.63,32.34 C41.39,28.6133333 41.15,24.89 40.91,21.17 C40.7366667,18.4233333 40.5666667,15.6766667 40.4,12.93 C40.4,12.8 40.4,12.68 40.4,12.52 L88.22,12.57 Z" id="Shape"></path>
            <path d="M53,4.59 C53.11,3.87 53.23,3.2 53.32,2.52 C53.52,1.05 53.95,0.65 55.41,0.65 L73.41,0.65 C74.79,0.65 75.12,0.92 75.41,2.3 L75.83,4.59 L89.57,4.59 C91.1,4.59 91.74,5.23 91.74,6.76 C91.74,7.32 91.74,7.88 91.74,8.43 C91.7426598,8.89413114 91.5608313,9.34030844 91.2345164,9.67037412 C90.9082014,10.0004398 90.4641312,10.1873554 90,10.19 L38.67,10.19 C38.1874513,10.1985096 37.7225797,10.0084874 37.3841608,9.66439675 C37.045742,9.32030608 36.8634719,8.85234067 36.88,8.37 C36.88,7.74 36.88,7.1 36.88,6.47 C36.8439717,5.95854404 37.0314956,5.45659592 37.3940458,5.09404576 C37.7565959,4.7314956 38.258544,4.5439717 38.77,4.58 C40.05,4.58 41.34,4.58 42.62,4.58 L53,4.58 L53,4.59 Z" id="Shape"></path>
            <path d="M48.47,56.9 C48.47,57.37 48.47,57.83 48.47,58.3 C48.47,59.66 48.47,60.94 48.38,62.23 C48.3195777,62.9649108 48.1718715,63.6900141 47.94,64.39 C47.6030015,65.3905714 46.8840828,66.217328 45.94,66.69 C45.5844981,66.8919037 45.2171674,67.0722297 44.84,67.23 C43.5989971,67.722183 42.3080384,68.0776158 40.99,68.29 C37.0895645,68.93697 33.1436844,69.2713666 29.19,69.29 L27.44,69.29 L22.23,69.29 L22.23,69.36 L20.94,69.31 C18.21,69.2 15.39,69.08 12.63,68.92 C10.2129818,68.7984335 7.81761032,68.4025598 5.49,67.74 C4.13050012,67.4333317 2.87114278,66.7864487 1.83,65.86 C1.05034407,65.0932476 0.586485403,64.0620541 0.53,62.97 C-0.04,55.9 0.46,50.56 2.17,45.67 C3.90116843,40.3080317 7.05695505,35.5173195 11.3,31.81 C13.8890243,29.5254165 17.0117269,27.9296742 20.38,27.17 L20.57,27.17 L24.76,27.17 C26.05,27.17 27.1,27.17 28.08,27.17 C28.6471554,27.1986089 29.208348,27.2994219 29.75,27.47 C33.5436905,28.5761624 36.967801,30.6872941 39.66,33.58 C40.4408395,34.3948307 41.175328,35.2528469 41.86,36.15 C44.8136793,40.0874859 46.8314095,44.6461882 47.76,49.48 C48.2668512,51.9199947 48.5049374,54.408163 48.47,56.9 Z" id="Shape"></path>
            <path d="M14.28,10.86 L34.54,10.86 C34.47,11 34.42,11.11 34.36,11.21 C32.62,14.0166667 30.88,16.8233333 29.14,19.63 C29.0384602,19.8311868 28.8244626,19.9500743 28.6,19.93 L20.21,19.93 C20.0277175,19.9238062 19.8567369,19.8401348 19.74,19.7 C17.9533333,16.8533333 16.1766667,14 14.41,11.14 C14.37,11.06 14.34,11 14.28,10.86 Z" id="Shape"></path>
            <path d="M24.44,21.75 L28.59,21.75 C29.2559495,21.6999795 29.8938677,22.0269293 30.2421278,22.5967588 C30.590388,23.1665883 30.590388,23.8834117 30.2421278,24.4532412 C29.8938677,25.0230707 29.2559495,25.3500205 28.59,25.3 C25.7633333,25.3 22.9366667,25.3 20.11,25.3 C19.4440505,25.3500205 18.8061323,25.0230707 18.4578722,24.4532412 C18.109612,23.8834117 18.109612,23.1665883 18.4578722,22.5967588 C18.8061323,22.0269293 19.4440505,21.6999795 20.11,21.75 L24.44,21.75 Z" id="Shape"></path>
        </g>
    </g>
</svg>