<svg id="Layer_1" data-name="Layer 1" xmlns="http://www.w3.org/2000/svg" viewBox="0 0 200 200"><defs><style>.cls-1{fill:#e6eae7;}</style></defs><title>Pattern</title><path class="cls-1" d="M42.22-22.43c-.07,1.17-.13,2.31-.2,3.46q-.36,5.74-.74,11.47-.43,6.68-.85,13.36-.35,5.54-.7,11.08c-.27,4.19-.51,8.39-.8,12.58a5.33,5.33,0,0,1-4.83,4.72c-.37,0-.74,0-1.11,0q-14.7,0-29.41,0a6.71,6.71,0,0,1-2.79-.54L1,33.62A6.22,6.22,0,0,0,4.06,30a11.43,11.43,0,0,0,.53-2.69c.1-1.8.08-3.61.11-5.42A36.4,36.4,0,0,0,3.94,14,34.17,34.17,0,0,0-4.39-2.61q-.36-5.59-.72-11.17Q-5.38-17.9-5.62-22c0-.13,0-.25,0-.41Z"/><path class="cls-1" d="M2.47,21.9c0,.47,0,.93,0,1.4,0,1.36,0,2.64-.09,3.93a9.29,9.29,0,0,1-.44,2.16,4,4,0,0,1-2,2.3,10.19,10.19,0,0,1-1.1.54,18.37,18.37,0,0,1-3.85,1.06,74.25,74.25,0,0,1-11.8,1l-1.75,0h-5.17v.07l-1.29-.05c-2.73-.11-5.55-.23-8.31-.39a31.94,31.94,0,0,1-7.14-1.18,8.23,8.23,0,0,1-3.66-1.88A4.37,4.37,0,0,1-45.47,28c-.57-7.07-.07-12.41,1.64-17.3A31.09,31.09,0,0,1-34.71-3.19a20.56,20.56,0,0,1,9.08-4.64l.19,0h4.19c1.29,0,2.34,0,3.32,0a6.68,6.68,0,0,1,1.67.3A21.92,21.92,0,0,1-6.35-1.43a30.16,30.16,0,0,1,2.2,2.57,32.4,32.4,0,0,1,5.9,13.33A34.13,34.13,0,0,1,2.47,21.9Z"/><path class="cls-1" d="M42.22,177.57c-.07,1.17-.13,2.31-.2,3.46q-.36,5.74-.74,11.47-.43,6.68-.85,13.36-.35,5.54-.7,11.08c-.27,4.19-.51,8.39-.8,12.58a5.33,5.33,0,0,1-4.83,4.72c-.37,0-.74,0-1.11,0q-14.7,0-29.41,0a6.71,6.71,0,0,1-2.79-.54l.22-.12A6.22,6.22,0,0,0,4.06,230a11.43,11.43,0,0,0,.53-2.69c.1-1.8.08-3.61.11-5.42A36.4,36.4,0,0,0,3.94,214a34.17,34.17,0,0,0-8.33-16.62q-.36-5.59-.72-11.17-.26-4.12-.51-8.24c0-.13,0-.25,0-.41Z"/><path class="cls-1" d="M7,169.59c.11-.72.23-1.39.32-2.07.2-1.47.63-1.87,2.09-1.87h18c1.38,0,1.71.27,2,1.65l.42,2.29H43.53c1.53,0,2.17.64,2.17,2.17,0,.56,0,1.12,0,1.67A1.75,1.75,0,0,1,44,175.19H-7.33a1.76,1.76,0,0,1-1.79-1.82c0-.63,0-1.27,0-1.9a1.77,1.77,0,0,1,1.89-1.89c1.28,0,2.57,0,3.85,0H7Z"/><path class="cls-1" d="M2.47,221.9c0,.47,0,.93,0,1.4,0,1.36,0,2.64-.09,3.93a9.29,9.29,0,0,1-.44,2.16,4,4,0,0,1-2,2.3,10.19,10.19,0,0,1-1.1.54,18.37,18.37,0,0,1-3.85,1.06,74.25,74.25,0,0,1-11.8,1l-1.75,0h-5.17v.07l-1.29-.05c-2.73-.11-5.55-.23-8.31-.39a31.94,31.94,0,0,1-7.14-1.18,8.23,8.23,0,0,1-3.66-1.88,4.37,4.37,0,0,1-1.3-2.89c-.57-7.07-.07-12.41,1.64-17.3a31.09,31.09,0,0,1,9.13-13.86,20.56,20.56,0,0,1,9.08-4.64l.19,0h4.19c1.29,0,2.34,0,3.32,0a6.68,6.68,0,0,1,1.67.3,21.92,21.92,0,0,1,9.91,6.11,30.16,30.16,0,0,1,2.2,2.57,32.4,32.4,0,0,1,5.9,13.33A34.13,34.13,0,0,1,2.47,221.9Z"/><path class="cls-1" d="M142.22,77.57c-.07,1.17-.13,2.31-.2,3.46q-.36,5.74-.74,11.47-.43,6.68-.85,13.36-.35,5.54-.7,11.08c-.27,4.19-.51,8.39-.8,12.58a5.33,5.33,0,0,1-4.83,4.72c-.37,0-.74,0-1.11,0q-14.7,0-29.41,0a6.71,6.71,0,0,1-2.79-.54l.22-.12a6.22,6.22,0,0,0,3.07-3.59,11.43,11.43,0,0,0,.53-2.69c.1-1.8.08-3.61.11-5.42a36.4,36.4,0,0,0-.76-7.92,34.17,34.17,0,0,0-8.33-16.62q-.36-5.59-.72-11.17-.26-4.12-.51-8.24c0-.13,0-.25,0-.41Z"/><path class="cls-1" d="M107,69.59c.11-.72.23-1.39.32-2.07.2-1.47.63-1.87,2.09-1.87h18c1.38,0,1.71.27,2,1.65l.42,2.29h13.74c1.53,0,2.17.64,2.17,2.17,0,.56,0,1.12,0,1.67A1.75,1.75,0,0,1,144,75.19H92.67a1.76,1.76,0,0,1-1.79-1.82c0-.63,0-1.27,0-1.9a1.77,1.77,0,0,1,1.89-1.89c1.28,0,2.57,0,3.85,0H107Z"/><path class="cls-1" d="M102.47,121.9c0,.47,0,.93,0,1.4,0,1.36,0,2.64-.09,3.93a9.29,9.29,0,0,1-.44,2.16,4,4,0,0,1-2,2.3,10.19,10.19,0,0,1-1.1.54,18.37,18.37,0,0,1-3.85,1.06,74.25,74.25,0,0,1-11.8,1l-1.75,0H76.23v.07l-1.29-.05c-2.73-.11-5.55-.23-8.31-.39a31.94,31.94,0,0,1-7.14-1.18,8.23,8.23,0,0,1-3.66-1.88,4.37,4.37,0,0,1-1.3-2.89c-.57-7.07-.07-12.41,1.64-17.3a31.09,31.09,0,0,1,9.13-13.86,20.56,20.56,0,0,1,9.08-4.64l.19,0h4.19c1.29,0,2.34,0,3.32,0a6.68,6.68,0,0,1,1.67.3,21.92,21.92,0,0,1,9.91,6.11,30.16,30.16,0,0,1,2.2,2.57,32.4,32.4,0,0,1,5.9,13.33A34.13,34.13,0,0,1,102.47,121.9Z"/><path class="cls-1" d="M68.28,76.86H88.54c-.07.14-.12.25-.18.35q-2.61,4.21-5.22,8.42a.55.55,0,0,1-.54.3l-8.39,0a.64.64,0,0,1-.47-.23q-2.68-4.27-5.33-8.56C68.37,77.06,68.34,77,68.28,76.86Z"/><path class="cls-1" d="M78.44,86.75h4.15a1.78,1.78,0,1,1,0,3.55q-4.24,0-8.48,0a1.78,1.78,0,1,1,0-3.55Z"/><path class="cls-1" d="M242.22-22.43c-.07,1.17-.13,2.31-.2,3.46q-.36,5.74-.74,11.47-.43,6.68-.85,13.36-.35,5.54-.7,11.08c-.27,4.19-.51,8.39-.8,12.58a5.33,5.33,0,0,1-4.83,4.72c-.37,0-.74,0-1.11,0q-14.7,0-29.41,0a6.71,6.71,0,0,1-2.79-.54l.22-.12A6.22,6.22,0,0,0,204.06,30a11.43,11.43,0,0,0,.53-2.69c.1-1.8.08-3.61.11-5.42a36.4,36.4,0,0,0-.76-7.92,34.17,34.17,0,0,0-8.33-16.62q-.36-5.59-.72-11.17-.26-4.12-.51-8.24c0-.13,0-.25,0-.41Z"/><path class="cls-1" d="M202.47,21.9c0,.47,0,.93,0,1.4,0,1.36,0,2.64-.09,3.93a9.29,9.29,0,0,1-.44,2.16,4,4,0,0,1-2,2.3,10.19,10.19,0,0,1-1.1.54,18.37,18.37,0,0,1-3.85,1.06,74.25,74.25,0,0,1-11.8,1l-1.75,0h-5.17v.07l-1.29-.05c-2.73-.11-5.55-.23-8.31-.39a31.94,31.94,0,0,1-7.14-1.18,8.23,8.23,0,0,1-3.66-1.88,4.37,4.37,0,0,1-1.3-2.89c-.57-7.07-.07-12.41,1.64-17.3a31.09,31.09,0,0,1,9.13-13.86,20.56,20.56,0,0,1,9.08-4.64l.19,0h4.19c1.29,0,2.34,0,3.32,0a6.68,6.68,0,0,1,1.67.3,21.92,21.92,0,0,1,9.91,6.11,30.16,30.16,0,0,1,2.2,2.57,32.4,32.4,0,0,1,5.9,13.33A34.13,34.13,0,0,1,202.47,21.9Z"/><path class="cls-1" d="M242.22,177.57c-.07,1.17-.13,2.31-.2,3.46q-.36,5.74-.74,11.47-.43,6.68-.85,13.36-.35,5.54-.7,11.08c-.27,4.19-.51,8.39-.8,12.58a5.33,5.33,0,0,1-4.83,4.72c-.37,0-.74,0-1.11,0q-14.7,0-29.41,0a6.71,6.71,0,0,1-2.79-.54l.22-.12a6.22,6.22,0,0,0,3.07-3.59,11.43,11.43,0,0,0,.53-2.69c.1-1.8.08-3.61.11-5.42a36.4,36.4,0,0,0-.76-7.92,34.17,34.17,0,0,0-8.33-16.62q-.36-5.59-.72-11.17-.26-4.12-.51-8.24c0-.13,0-.25,0-.41Z"/><path class="cls-1" d="M207,169.59c.11-.72.23-1.39.32-2.07.2-1.47.63-1.87,2.09-1.87h18c1.38,0,1.71.27,2,1.65l.42,2.29h13.74c1.53,0,2.17.64,2.17,2.17,0,.56,0,1.12,0,1.67a1.75,1.75,0,0,1-1.73,1.76H192.67a1.76,1.76,0,0,1-1.79-1.82c0-.63,0-1.27,0-1.9a1.77,1.77,0,0,1,1.89-1.89c1.28,0,2.57,0,3.85,0H207Z"/><path class="cls-1" d="M202.47,221.9c0,.47,0,.93,0,1.4,0,1.36,0,2.64-.09,3.93a9.29,9.29,0,0,1-.44,2.16,4,4,0,0,1-2,2.3,10.19,10.19,0,0,1-1.1.54,18.37,18.37,0,0,1-3.85,1.06,74.25,74.25,0,0,1-11.8,1l-1.75,0h-5.17v.07l-1.29-.05c-2.73-.11-5.55-.23-8.31-.39a31.94,31.94,0,0,1-7.14-1.18,8.23,8.23,0,0,1-3.66-1.88,4.37,4.37,0,0,1-1.3-2.89c-.57-7.07-.07-12.41,1.64-17.3a31.09,31.09,0,0,1,9.13-13.86,20.56,20.56,0,0,1,9.08-4.64l.19,0h4.19c1.29,0,2.34,0,3.32,0a6.68,6.68,0,0,1,1.67.3,21.92,21.92,0,0,1,9.91,6.11,30.16,30.16,0,0,1,2.2,2.57,32.4,32.4,0,0,1,5.9,13.33A34.13,34.13,0,0,1,202.47,221.9Z"/><path class="cls-1" d="M168.28,176.86h20.26c-.07.14-.12.25-.18.35q-2.61,4.21-5.22,8.42a.55.55,0,0,1-.54.3l-8.39,0a.64.64,0,0,1-.47-.23q-2.68-4.27-5.33-8.56C168.37,177.06,168.34,177,168.28,176.86Z"/><path class="cls-1" d="M178.44,186.75h4.15a1.78,1.78,0,1,1,0,3.55q-4.24,0-8.48,0a1.78,1.78,0,1,1,0-3.55Z"/></svg>