<?xml version="1.0" encoding="UTF-8"?>
<svg width="416px" height="188px" viewBox="0 0 416 188" version="1.1" xmlns="http://www.w3.org/2000/svg" xmlns:xlink="http://www.w3.org/1999/xlink">
    <!-- Generator: Sketch 44.1 (41455) - http://www.bohemiancoding.com/sketch -->
    <title>gemeente logo</title>
    <desc>Created with Sketch.</desc>
    <defs>
        <polygon id="path-1" points="0 51.2790674 0 102.512375 415.878781 102.512375 415.878781 51.2790674 415.878781 0.0457595308 0 0.0457595308"></polygon>
        <polygon id="path-3" points="0 51.2790674 0 102.512375 415.878781 102.512375 415.878781 51.2790674 415.878781 0.0457595308 0 0.0457595308"></polygon>
    </defs>
    <g id="Page-1" stroke="none" stroke-width="1" fill="none" fill-rule="evenodd">
        <g id="NL-flyer-clean-street-A5" transform="translate(-1138.000000, -124.000000)">
            <g id="gemeente-logo" transform="translate(1138.000000, 124.000000)">
                <path d="M124.618723,46.9729853 C119.217335,49.8641056 113.061637,51.3725161 106.214993,51.3725161 C92.521706,51.3725161 82.7228397,42.070651 82.7228397,28.1807038 C82.7228397,13.9142053 92.521706,4.61234018 106.214993,4.61234018 C112.998824,4.61234018 119.091709,6.05790029 123.739338,10.2060293 L117.898257,16.1139707 C115.071661,13.3485513 110.737547,11.7772903 106.277807,11.7772903 C97.1070728,11.7772903 91.0141881,18.8165396 91.0141881,27.6784516 C91.0141881,37.1683167 97.1070728,44.207566 106.277807,44.207566 C110.297854,44.207566 113.941023,43.4533607 116.704805,41.8820997 L116.704805,31.3860762 L107.596885,31.3860762 L107.596885,24.2216774 L124.618723,24.2216774 L124.618723,46.9729853" id="Fill-1" fill="#FFFFFF" fill-rule="nonzero"></path>
                <path d="M154.769632,32.1402815 C154.706819,27.7407507 151.817409,24.9758827 147.106416,24.9758827 C142.646675,24.9758827 139.882893,27.8041525 139.317574,32.1402815 L154.769632,32.1402815 Z M139.317574,37.7968211 C139.820079,42.2592023 143.211995,44.9617713 147.420482,44.9617713 C151.189277,44.9617713 153.638993,43.2019589 155.523391,40.8764927 L160.924779,44.9617713 C157.407788,49.2984516 152.948048,50.9954135 148.174241,50.9954135 C139.066321,50.9954135 131.779984,44.6475191 131.779984,35.1571026 C131.779984,25.6672375 139.066321,19.3187918 148.174241,19.3187918 C156.591216,19.3187918 162.30667,25.2267331 162.30667,35.7227566 L162.30667,37.7968211 L139.317574,37.7968211 L139.317574,37.7968211 Z" id="Fill-2" fill="#FFFFFF" fill-rule="nonzero"></path>
                <path d="M169.028238,20.0735484 L176.188397,20.0735484 L176.188397,24.7867801 L176.314024,24.7867801 C177.633102,21.9590616 180.522511,19.3187918 185.547571,19.3187918 C190.195751,19.3187918 193.399226,21.1420059 194.969558,24.9124809 C197.168021,21.0791554 200.370946,19.3187918 204.893499,19.3187918 C212.933595,19.3187918 215.760191,25.0387331 215.760191,32.2659824 L215.760191,50.2412082 L208.222601,50.2412082 L208.222601,33.1464399 C208.222601,29.3748622 207.092514,26.1071906 202.632774,26.1071906 C197.92178,26.1071906 196.163009,30.0033666 196.163009,33.9000938 L196.163009,50.2412082 L188.62542,50.2412082 L188.62542,32.2659824 C188.62542,28.5578065 187.117902,26.1071906 183.474734,26.1071906 C178.512487,26.1071906 176.565277,29.7519648 176.565277,33.774393 L176.565277,50.2412082 L169.028238,50.2412082 L169.028238,20.0735484" id="Fill-3" fill="#FFFFFF" fill-rule="nonzero"></path>
                <path d="M245.470856,32.1402815 C245.408042,27.7407507 242.518633,24.9758827 237.808191,24.9758827 C233.347899,24.9758827 230.584117,27.8041525 230.018797,32.1402815 L245.470856,32.1402815 Z M230.018797,37.7968211 C230.521303,42.2592023 233.913219,44.9617713 238.121706,44.9617713 C241.890501,44.9617713 244.340217,43.2019589 246.224615,40.8764927 L251.626554,44.9617713 C248.109012,49.2984516 243.649272,50.9954135 238.875465,50.9954135 C229.768095,50.9954135 222.481208,44.6475191 222.481208,35.1571026 C222.481208,25.6672375 229.768095,19.3187918 238.875465,19.3187918 C247.29244,19.3187918 253.008445,25.2267331 253.008445,35.7227566 L253.008445,37.7968211 L230.018797,37.7968211 L230.018797,37.7968211 Z" id="Fill-4" fill="#FFFFFF" fill-rule="nonzero"></path>
                <path d="M281.524556,32.1402815 C281.461743,27.7407507 278.572885,24.9758827 273.86134,24.9758827 C269.4016,24.9758827 266.638368,27.8041525 266.072498,32.1402815 L281.524556,32.1402815 Z M266.072498,37.7968211 C266.575555,42.2592023 269.96747,44.9617713 274.175958,44.9617713 C277.944201,44.9617713 280.394469,43.2019589 282.278866,40.8764927 L287.680254,44.9617713 C284.163264,49.2984516 279.703523,50.9954135 274.929717,50.9954135 C265.821245,50.9954135 258.53546,44.6475191 258.53546,35.1571026 C258.53546,25.6672375 265.821245,19.3187918 274.929717,19.3187918 C283.34614,19.3187918 289.062146,25.2267331 289.062146,35.7227566 L289.062146,37.7968211 L266.072498,37.7968211 L266.072498,37.7968211 Z" id="Fill-5" fill="#FFFFFF" fill-rule="nonzero"></path>
                <path d="M296.09778,20.0735484 L303.25849,20.0735484 L303.25849,24.9124809 L303.383566,24.9124809 C304.765457,21.8962111 307.592053,19.3187918 312.617113,19.3187918 C320.720021,19.3187918 323.60943,25.0387331 323.60943,31.1975249 L323.60943,50.2412082 L316.071841,50.2412082 L316.071841,34.9685513 C316.071841,31.637478 315.821139,26.1071906 310.544275,26.1071906 C305.58258,26.1071906 303.634819,29.7519648 303.634819,33.774393 L303.634819,50.2412082 L296.09778,50.2412082 L296.09778,20.0735484" id="Fill-6" fill="#FFFFFF" fill-rule="nonzero"></path>
                <path d="M328.633939,26.4842933 L328.633939,20.0735484 L334.853001,20.0735484 L334.853001,11.3373372 L342.39004,11.3373372 L342.39004,20.0735484 L350.681388,20.0735484 L350.681388,26.4842933 L342.39004,26.4842933 L342.39004,39.6823343 C342.39004,42.6991554 343.269425,44.5846686 346.598527,44.5846686 C347.917605,44.5846686 349.739189,44.3332669 350.681388,43.641912 L350.681388,49.9898065 C349.111057,50.7440117 346.47235,50.9954135 344.71413,50.9954135 C336.737399,50.9954135 334.853001,47.4129384 334.853001,40.3108387 L334.853001,26.4842933 L328.633939,26.4842933" id="Fill-7" fill="#FFFFFF" fill-rule="nonzero"></path>
                <path d="M378.066861,32.1402815 C378.004048,27.7407507 375.115189,24.9758827 370.403645,24.9758827 C365.943905,24.9758827 363.180673,27.8041525 362.614803,32.1402815 L378.066861,32.1402815 Z M362.614803,37.7968211 C363.117309,42.2592023 366.509775,44.9617713 370.717711,44.9617713 C374.486506,44.9617713 376.936774,43.2019589 378.82062,40.8764927 L384.222559,44.9617713 C380.705017,49.2984516 376.245828,50.9954135 371.472021,50.9954135 C362.36355,50.9954135 355.077764,44.6475191 355.077764,35.1571026 C355.077764,25.6672375 362.36355,19.3187918 371.472021,19.3187918 C379.888445,19.3187918 385.60445,25.2267331 385.60445,35.7227566 L385.60445,37.7968211 L362.614803,37.7968211 L362.614803,37.7968211 Z" id="Fill-8" fill="#FFFFFF" fill-rule="nonzero"></path>
                <path d="M109.544095,99.453654 L102.697452,81.352176 L95.7251815,99.453654 L109.544095,99.453654 Z M99.4939762,71.92461 L106.34062,71.92461 L125.498109,116.422721 L116.453552,116.422721 L112.307878,106.24095 L93.0242119,106.24095 L89.0041642,116.422721 L80.1474967,116.422721 L99.4939762,71.92461 L99.4939762,71.92461 Z" id="Fill-9" fill="#FFFFFF" fill-rule="nonzero"></path>
                <path d="M129.455343,86.2545103 L136.615502,86.2545103 L136.615502,90.9682933 L136.741128,90.9682933 C138.060207,88.1400235 140.949616,85.500305 145.974675,85.500305 C150.622856,85.500305 153.826331,87.3229677 155.396662,91.0939941 C157.595126,87.2601173 160.79805,85.500305 165.321155,85.500305 C173.360699,85.500305 176.187295,91.2202463 176.187295,98.4469443 L176.187295,116.422721 L168.649706,116.422721 L168.649706,99.3274018 C168.649706,95.555824 167.519619,92.2881525 163.059878,92.2881525 C158.348885,92.2881525 156.590114,96.1848798 156.590114,100.081056 L156.590114,116.422721 L149.052525,116.422721 L149.052525,98.4469443 C149.052525,94.739871 147.545007,92.2881525 143.901838,92.2881525 C138.939592,92.2881525 136.992381,95.9340293 136.992381,99.9564575 L136.992381,116.422721 L129.455343,116.422721 L129.455343,86.2545103" id="Fill-10" fill="#FFFFFF" fill-rule="nonzero"></path>
                <path d="M200.496572,94.6130674 C199.051868,92.602956 197.16747,91.5333959 194.592127,91.5333959 C192.582103,91.5333959 190.1952,92.4767038 190.1952,94.739871 C190.1952,100.144457 206.46383,95.7443754 206.46383,107.497959 C206.46383,114.662358 199.617187,117.176375 193.461489,117.176375 C188.813309,117.176375 184.793261,115.982768 181.715412,112.525443 L186.740472,107.812211 C188.687682,109.949126 190.697706,111.520387 193.901181,111.520387 C196.099645,111.520387 198.926241,110.45193 198.926241,108.063613 C198.926241,101.841419 182.657611,106.743754 182.657611,95.2426745 C182.657611,88.5171261 188.687682,85.500305 194.780567,85.500305 C198.800615,85.500305 203.071915,86.7573138 205.521632,90.0883871 L200.496572,94.6130674" id="Fill-11" fill="#FFFFFF" fill-rule="nonzero"></path>
                <path d="M208.78737,92.6652551 L208.78737,86.2545103 L215.005881,86.2545103 L215.005881,77.5182991 L222.54347,77.5182991 L222.54347,86.2545103 L230.834268,86.2545103 L230.834268,92.6652551 L222.54347,92.6652551 L222.54347,105.863848 C222.54347,108.880669 223.422305,110.76563 226.751407,110.76563 C228.070485,110.76563 229.892069,110.514229 230.834268,109.822874 L230.834268,116.170768 C229.263936,116.925525 226.62578,117.176375 224.867009,117.176375 C216.890278,117.176375 215.005881,113.594452 215.005881,106.491801 L215.005881,92.6652551 L208.78737,92.6652551" id="Fill-12" fill="#FFFFFF" fill-rule="nonzero"></path>
                <path d="M258.220291,98.3212434 C258.156927,93.9217126 255.268069,91.1568446 250.557075,91.1568446 C246.097335,91.1568446 243.333552,93.9851144 242.768233,98.3212434 L258.220291,98.3212434 Z M242.768233,103.978886 C243.270739,108.440164 246.662654,111.142733 250.871142,111.142733 C254.639385,111.142733 257.089653,109.383472 258.97405,107.058006 L264.375438,111.142733 C260.858448,115.479965 256.398707,117.176375 251.624901,117.176375 C242.517531,117.176375 235.230644,110.829032 235.230644,101.338065 C235.230644,91.8481994 242.517531,85.500305 251.624901,85.500305 C260.041325,85.500305 265.75733,91.4087977 265.75733,101.90427 L265.75733,103.978886 L242.768233,103.978886 L242.768233,103.978886 Z" id="Fill-13" fill="#FFFFFF" fill-rule="nonzero"></path>
                <path d="M272.792964,86.2545103 L280.330003,86.2545103 L280.330003,91.0311437 L280.45618,91.0311437 C282.089325,87.5743695 285.418426,85.500305 289.37511,85.500305 C290.317309,85.500305 291.196694,85.6888563 292.076079,85.9402581 L292.076079,93.2303578 C290.820366,92.9161056 289.626914,92.6652551 288.433462,92.6652551 C281.335566,92.6652551 280.330003,98.6354956 280.330003,100.270158 L280.330003,116.422721 L272.792964,116.422721 L272.792964,86.2545103" id="Fill-14" fill="#FFFFFF" fill-rule="nonzero"></path>
                <path d="M311.045128,110.389079 C316.572694,110.389079 319.901796,106.052399 319.901796,101.338065 C319.901796,96.6253842 316.572694,92.2881525 311.045128,92.2881525 C305.517012,92.2881525 302.18791,96.6253842 302.18791,101.338065 C302.18791,106.052399 305.517012,110.389079 311.045128,110.389079 Z M320.026872,111.89749 L319.901796,111.89749 C317.703332,115.542815 313.746098,117.176375 309.53706,117.176375 C300.24125,117.176375 294.650872,110.263378 294.650872,101.338065 C294.650872,92.4138534 300.61813,85.500305 309.223544,85.500305 C314.876736,85.500305 317.891221,88.1400235 319.461552,90.0883871 L319.650543,90.0883871 L319.650543,68.9083402 L327.187581,68.9083402 L327.187581,116.422721 L320.026872,116.422721 L320.026872,111.89749 L320.026872,111.89749 Z" id="Fill-15" fill="#FFFFFF" fill-rule="nonzero"></path>
                <path d="M354.134464,102.909326 L352.564132,102.909326 C348.418458,102.909326 341.258299,103.223578 341.258299,107.560258 C341.258299,110.325677 344.084344,111.520387 346.534061,111.520387 C351.684196,111.520387 354.134464,108.817267 354.134464,104.606287 L354.134464,102.909326 Z M354.574156,112.274041 L354.385717,112.274041 C352.250066,115.668516 348.732525,117.176375 344.712477,117.176375 C339.122649,117.176375 333.720159,114.097255 333.720159,108.126463 C333.720159,98.3212434 345.15217,97.6298886 352.689759,97.6298886 L354.574156,97.6298886 L354.574156,96.8133842 C354.574156,93.1052082 351.684196,91.1568446 347.664699,91.1568446 C344.524037,91.1568446 341.634628,92.4138534 339.624604,94.2993666 L335.66737,90.3397889 C338.996472,86.9458651 343.707465,85.500305 348.481272,85.500305 C361.357987,85.500305 361.357987,94.8016188 361.357987,99.076 L361.357987,116.422721 L354.574156,116.422721 L354.574156,112.274041 L354.574156,112.274041 Z" id="Fill-16" fill="#FFFFFF" fill-rule="nonzero"></path>
                <g id="Group-20" transform="translate(0.000000, 85.454545)">
                    <g id="Fill-17-Clipped">
                        <mask id="mask-2" fill="white">
                            <use xlink:href="#path-1"></use>
                        </mask>
                        <g id="path-1"></g>
                        <path d="M369.146278,0.799964809 L376.306988,0.799964809 L376.306988,5.5137478 L376.432064,5.5137478 C377.751693,2.68547801 380.641102,0.0457595308 385.665611,0.0457595308 C390.314342,0.0457595308 393.517266,1.86842229 395.088148,5.63944868 C397.286061,1.80557185 400.490087,0.0457595308 405.012641,0.0457595308 C413.052185,0.0457595308 415.878781,5.76570088 415.878781,12.9923988 L415.878781,30.968176 L408.341743,30.968176 L408.341743,13.8728563 C408.341743,10.1012786 407.210554,6.83360704 402.750813,6.83360704 C398.03982,6.83360704 396.2816,10.7303343 396.2816,14.6265103 L396.2816,30.968176 L388.74346,30.968176 L388.74346,12.9923988 C388.74346,9.28532551 387.236493,6.83360704 383.593325,6.83360704 C378.631078,6.83360704 376.683868,10.4794839 376.683868,14.501912 L376.683868,30.968176 L369.146278,30.968176 L369.146278,0.799964809" id="Fill-17" fill="#FFFFFF" fill-rule="nonzero" mask="url(#mask-2)"></path>
                    </g>
                    <g id="Fill-19-Clipped">
                        <mask id="mask-4" fill="white">
                            <use xlink:href="#path-3"></use>
                        </mask>
                        <g id="path-1"></g>
                        <polyline id="Fill-19" fill="#FFFFFF" fill-rule="nonzero" mask="url(#mask-4)" points="0 91.5190616 16.5281483 74.9805748 0 58.440434 11.0198675 47.4140411 27.5496689 63.9536305 44.0794702 47.4140411 55.0993377 58.440434 38.5695364 74.9805748 55.0993377 91.5190616 44.0794702 102.545455 27.5496689 86.0069677 11.0198675 102.545455 0 91.5190616"></polyline>
                    </g>
                </g>
                <polyline id="Fill-21" fill="#FFFFFF" fill-rule="nonzero" points="0.00165298013 44.5526921 16.5314543 28.0125513 0.00165298013 11.4718592 11.0198675 0.446568915 27.5513219 16.9861584 44.0811232 0.446568915 55.1009907 11.4718592 38.5695364 28.0125513 55.1009907 44.5526921 44.0811232 55.5785337 27.5513219 39.038393 11.0231735 55.5785337 0.00165298013 44.5526921"></polyline>
                <polyline id="Fill-22" fill="#FFFFFF" fill-rule="nonzero" points="0.00165298013 110.820211 16.5314543 94.281173 0.00165298013 77.7410323 11.0220715 66.714088 27.5513219 83.2542287 44.0811232 66.714088 55.1009907 77.7410323 38.5717404 94.281173 55.1009907 110.820211 44.0811232 121.846604 27.5513219 105.307566 11.0220715 121.846604 0.00165298013 110.820211"></polyline>
            </g>
        </g>
    </g>
</svg>