<?xml version="1.0" encoding="UTF-8"?>
<svg width="787px" height="164px" viewBox="0 0 787 164" version="1.1" xmlns="http://www.w3.org/2000/svg" xmlns:xlink="http://www.w3.org/1999/xlink">
    <!-- Generator: Sketch 43.2 (39069) - http://www.bohemiancoding.com/sketch -->
    <title>clean street logo - work in progress</title>
    <desc>Created with Sketch.</desc>
    <defs></defs>
    <g id="Page-2" stroke="none" stroke-width="1" fill="none" fill-rule="evenodd">
        <g id="clean-street-logo---work-in-progress" fill="#000000">
            <path d="M52.9725846,60.5532468 C51.5837833,58.5792109 49.5006126,56.9259807 46.72301,55.5935065 C43.9454074,54.2610323 41.1182472,53.5948052 38.2414445,53.5948052 C34.9678415,53.5948052 32.0910819,54.2610323 29.6110796,55.5935065 C27.1310773,56.9259807 25.0727062,58.6779112 23.4359047,60.8493506 C21.7991032,63.0207901 20.5839203,65.4636228 19.7903195,68.1779221 C18.9967188,70.8922214 18.5999244,73.631155 18.5999244,76.3948052 C18.5999244,79.1584554 19.0215184,81.897389 19.8647192,84.6116883 C20.70792,87.3259876 21.9727022,89.7688203 23.6591038,91.9402597 C25.3455054,94.1116992 27.4534757,95.8636297 29.9830781,97.1961039 C32.5126804,98.5285781 35.4638389,99.1948052 38.8366421,99.1948052 C41.6142447,99.1948052 44.3918056,98.6519535 47.1694082,97.5662338 C49.9470108,96.4805141 52.1789794,94.9013091 53.865381,92.8285714 L65.0253356,104.080519 C62.0493328,107.238977 58.2549862,109.68181 53.6421819,111.409091 C49.0293776,113.136372 44.0446477,114 38.6878427,114 C33.4302378,114 28.4455079,113.161047 23.7335035,111.483117 C19.0214991,109.805186 14.904757,107.337679 11.3831537,104.080519 C7.86155043,100.82336 5.0839895,96.8753479 3.0503876,92.2363636 C1.0167857,87.5973794 0,82.3169127 0,76.3948052 C0,70.6701012 1.0167857,65.4883349 3.0503876,60.8493506 C5.0839895,56.2103664 7.83675078,52.2623539 11.308754,49.0051948 C14.7807573,45.7480357 18.8231004,43.2311777 23.4359047,41.4545455 C28.048709,39.6779132 32.9838396,38.7896104 38.2414445,38.7896104 C43.4990494,38.7896104 48.5829779,39.7766135 53.4933825,41.7506494 C58.4037871,43.7246852 62.2973323,46.4389438 65.174135,49.8935065 L52.9725846,60.5532468 Z M77.0780866,0 L94.934014,0 L94.934014,111.927273 L77.0780866,111.927273 L77.0780866,0 Z M166.952921,69.2883117 C166.952921,67.0181705 166.630526,64.8467636 165.985725,62.774026 C165.340924,60.7012883 164.324139,58.8753326 162.935337,57.2961039 C161.546536,55.7168752 159.785761,54.4584462 157.652959,53.5207792 C155.520157,52.5831122 153.015392,52.1142857 150.13859,52.1142857 C144.781785,52.1142857 140.243448,53.7181658 136.523445,56.925974 C132.803441,60.1337823 130.74507,64.2545203 130.34827,69.2883117 L166.952921,69.2883117 Z M184.808849,77.2831169 L184.808849,79.6519481 C184.808849,80.4415624 184.759249,81.2311649 184.660049,82.0207792 L130.34827,82.0207792 C130.54667,84.5870258 131.216261,86.9311582 132.357062,89.0532468 C133.497863,91.1753353 135.010642,93.0012911 136.895443,94.5311688 C138.780245,96.0610466 140.913015,97.2701254 143.293817,98.1584416 C145.67462,99.0467577 148.154585,99.4909091 150.733787,99.4909091 C155.197791,99.4909091 158.967338,98.6766315 162.042541,97.0480519 C165.117744,95.4194724 167.647308,93.1740403 169.63131,90.3116883 L181.535262,99.787013 C174.492055,109.262385 164.274599,114 150.882587,114 C145.327381,114 140.218653,113.136372 135.556249,111.409091 C130.893844,109.68181 126.851501,107.238977 123.429098,104.080519 C120.006695,100.922062 117.328333,97.0480749 115.393931,92.4584416 C113.459529,87.8688082 112.492343,82.6623668 112.492343,76.838961 C112.492343,71.1142571 113.459529,65.9078156 115.393931,61.2194805 C117.328333,56.5311454 119.981895,52.5337828 123.354698,49.2272727 C126.727502,45.9207627 130.720245,43.3545546 135.33305,41.5285714 C139.945854,39.7025883 144.930584,38.7896104 150.287389,38.7896104 C155.247394,38.7896104 159.835329,39.603888 164.051333,41.2324675 C168.267337,42.8610471 171.912886,45.2792047 174.988088,48.487013 C178.063291,51.6948212 180.468858,55.6921839 182.204859,60.4792208 C183.940861,65.2662577 184.808849,70.8675004 184.808849,77.2831169 Z M246.411798,102.896104 L245.9654,102.896104 C244.179798,106.054561 241.303039,108.645444 237.335035,110.668831 C233.367031,112.692218 228.853495,113.703896 223.79429,113.703896 C220.917487,113.703896 217.91673,113.33377 214.791927,112.593506 C211.667124,111.853243 208.790364,110.619489 206.161562,108.892208 C203.532759,107.164926 201.35039,104.894819 199.614388,102.081818 C197.878387,99.2688171 197.010399,95.7896311 197.010399,91.6441558 C197.010399,86.3142591 198.523178,82.0701457 201.54878,78.9116883 C204.574383,75.753231 208.467929,73.3350733 213.229533,71.6571429 C217.991137,69.9792124 223.273463,68.8688339 229.076669,68.325974 C234.879874,67.7831142 240.558994,67.5116883 246.114199,67.5116883 L246.114199,65.7350649 C246.114199,61.2934843 244.502222,58.0116989 241.278219,55.8896104 C238.054216,53.7675219 234.21027,52.7064935 229.746266,52.7064935 C225.976662,52.7064935 222.355913,53.496096 218.88391,55.0753247 C215.411907,56.6545534 212.535147,58.5792094 210.253545,60.8493506 L201.027983,50.0415584 C205.095186,46.2908903 209.78232,43.4779315 215.089525,41.6025974 C220.39673,39.7272634 225.778255,38.7896104 231.23426,38.7896104 C237.583066,38.7896104 242.815792,39.6779132 246.932596,41.4545455 C251.0494,43.2311777 254.298154,45.550635 256.678956,48.412987 C259.059759,51.275339 260.721335,54.4830991 261.663736,58.0363636 C262.606137,61.5896282 263.07733,65.1428394 263.07733,68.6961039 L263.07733,111.927273 L246.411798,111.927273 L246.411798,102.896104 Z M246.114199,79.5038961 L242.096616,79.5038961 C239.219813,79.5038961 236.194255,79.6272715 233.019853,79.874026 C229.84545,80.1207805 226.919091,80.6636322 224.240688,81.5025974 C221.562286,82.3415626 219.330317,83.5259664 217.544715,85.0558442 C215.759114,86.5857219 214.866326,88.6831036 214.866326,91.3480519 C214.866326,93.0259824 215.238321,94.4324619 215.982322,95.5675325 C216.726322,96.7026031 217.693509,97.615581 218.88391,98.3064935 C220.074311,98.9974061 221.413492,99.4909076 222.901494,99.787013 C224.389495,100.083118 225.877474,100.231169 227.365476,100.231169 C233.515881,100.231169 238.178216,98.6026137 241.352619,95.3454545 C244.527022,92.0882954 246.114199,87.6467814 246.114199,82.0207792 L246.114199,79.5038961 Z M283.909246,40.8623377 L300.872377,40.8623377 L300.872377,52.2623377 L301.169975,52.2623377 C302.757177,48.7090731 305.509938,45.5753382 309.428342,42.861039 C313.346746,40.1467397 317.98428,38.7896104 323.341085,38.7896104 C328.00349,38.7896104 331.996233,39.603888 335.319437,41.2324675 C338.64264,42.8610471 341.370601,45.0077789 343.503403,47.6727273 C345.636205,50.3376757 347.198583,53.3973853 348.190584,56.8519481 C349.182585,60.3065108 349.678578,63.859722 349.678578,67.5116883 L349.678578,111.927273 L331.822651,111.927273 L331.822651,72.5454545 C331.822651,70.4727169 331.673853,68.3013101 331.376253,66.0311688 C331.078652,63.7610276 330.433861,61.7129961 329.44186,59.887013 C328.44986,58.0610298 327.085879,56.5558501 325.349877,55.3714286 C323.613875,54.1870071 321.307508,53.5948052 318.430705,53.5948052 C315.553903,53.5948052 313.073937,54.162332 310.990735,55.2974026 C308.907534,56.4324732 307.196358,57.8883028 305.857156,59.6649351 C304.517955,61.4415673 303.501169,63.4895988 302.806769,65.8090909 C302.112368,68.128583 301.765173,70.4727154 301.765173,72.8415584 L301.765173,111.927273 L283.909246,111.927273 L283.909246,40.8623377 Z M446.844583,59.812987 C445.257382,57.7402494 443.075012,55.9389687 440.29741,54.4090909 C437.519807,52.8792131 434.49425,52.1142857 431.220647,52.1142857 C428.343844,52.1142857 425.715081,52.7064876 423.334279,53.8909091 C420.953476,55.0753306 419.763093,57.0493368 419.763093,59.812987 C419.763093,62.5766372 421.077475,64.5259684 423.706277,65.661039 C426.33508,66.7961096 430.179026,67.9558382 435.23823,69.1402597 C437.916633,69.7324705 440.619795,70.522073 443.347797,71.5090909 C446.0758,72.4961088 448.555765,73.803888 450.787767,75.4324675 C453.019769,77.0610471 454.830144,79.0844035 456.218945,81.5025974 C457.607746,83.9207913 458.302137,86.8571256 458.302137,90.3116883 C458.302137,94.6545672 457.483748,98.3311538 455.846946,101.341558 C454.210145,104.351963 452.027776,106.794796 449.299773,108.67013 C446.571771,110.545464 443.397415,111.902593 439.776612,112.741558 C436.155808,113.580524 432.411061,114 428.542258,114 C422.987052,114 417.580728,112.988322 412.323123,110.964935 C407.065519,108.941548 402.70078,106.054564 399.228777,102.303896 L410.983929,91.3480519 C412.967931,93.9142985 415.547094,96.0363552 418.721497,97.7142857 C421.8959,99.3922162 425.417451,100.231169 429.286254,100.231169 C430.575856,100.231169 431.890237,100.083118 433.229438,99.787013 C434.56864,99.4909076 435.808622,99.0220811 436.949423,98.3805195 C438.090224,97.7389578 439.007811,96.8753301 439.702212,95.7896104 C440.396613,94.7038907 440.743808,93.3714365 440.743808,91.7922078 C440.743808,88.831154 439.379827,86.7090973 436.651825,85.425974 C433.923822,84.1428507 429.83188,82.8597467 424.375874,81.5766234 C421.697472,80.9844126 419.093509,80.2194852 416.563906,79.2818182 C414.034304,78.3441512 411.777536,77.1103973 409.793534,75.5805195 C407.809532,74.0506417 406.222354,72.1506607 405.031953,69.8805195 C403.841552,67.6103783 403.24636,64.7974194 403.24636,61.4415584 C403.24636,57.4934868 404.064749,54.088326 405.70155,51.225974 C407.338352,48.3636221 409.495922,46.0194896 412.174324,44.1935065 C414.852727,42.3675233 417.878284,41.0103941 421.251087,40.1220779 C424.62389,39.2337618 428.095841,38.7896104 431.667045,38.7896104 C436.82545,38.7896104 441.859779,39.6779132 446.770183,41.4545455 C451.680588,43.2311777 455.574133,45.9454363 458.450936,49.5974026 L446.844583,59.812987 Z M463.510115,55.0753247 L463.510115,40.8623377 L476.009265,40.8623377 L476.009265,20.2831169 L493.567593,20.2831169 L493.567593,40.8623377 L511.423521,40.8623377 L511.423521,55.0753247 L493.567593,55.0753247 L493.567593,88.0909091 C493.567593,91.2493664 494.137985,93.8649247 495.278786,95.9376623 C496.419587,98.0104 498.973951,99.0467532 502.941955,99.0467532 C504.132356,99.0467532 505.421938,98.9233779 506.810739,98.6766234 C508.199541,98.4298689 509.439523,98.0597427 510.530724,97.5662338 L511.125922,111.483117 C509.53872,112.075328 507.653947,112.544154 505.471545,112.88961 C503.289143,113.235067 501.205972,113.407792 499.22197,113.407792 C494.460366,113.407792 490.59162,112.741565 487.615617,111.409091 C484.639615,110.076617 482.283648,108.250661 480.547646,105.931169 C478.811644,103.611677 477.621261,100.946768 476.976461,97.9363636 C476.33166,94.925959 476.009265,91.6935238 476.009265,88.238961 L476.009265,55.0753247 L463.510115,55.0753247 Z M524.369068,40.8623377 L541.480998,40.8623377 L541.480998,52.7064935 L541.778597,52.7064935 C543.762599,48.5610182 546.54016,45.2052076 550.111363,42.638961 C553.682567,40.0727144 557.848908,38.7896104 562.610512,38.7896104 C563.304913,38.7896104 564.048903,38.8142855 564.842503,38.8636364 C565.636104,38.9129873 566.330494,39.0363626 566.925695,39.2337662 L566.925695,55.5194805 C565.735294,55.2233751 564.718508,55.0259745 563.875307,54.9272727 C563.032106,54.8285709 562.213718,54.7792208 561.420117,54.7792208 C557.352913,54.7792208 554.079359,55.5194731 551.599357,57 C549.119355,58.4805269 547.184982,60.2571325 545.796181,62.3298701 C544.407379,64.4026078 543.464993,66.5246645 542.968992,68.6961039 C542.472992,70.8675433 542.224995,72.5947988 542.224995,73.8779221 L542.224995,111.927273 L524.369068,111.927273 L524.369068,40.8623377 Z M628.826243,69.2883117 C628.826243,67.0181705 628.503848,64.8467636 627.859047,62.774026 C627.214246,60.7012883 626.197461,58.8753326 624.808659,57.2961039 C623.419858,55.7168752 621.659083,54.4584462 619.526281,53.5207792 C617.393479,52.5831122 614.888714,52.1142857 612.011912,52.1142857 C606.655107,52.1142857 602.11677,53.7181658 598.396767,56.925974 C594.676763,60.1337823 592.618392,64.2545203 592.221592,69.2883117 L628.826243,69.2883117 Z M646.682171,77.2831169 L646.682171,79.6519481 C646.682171,80.4415624 646.632571,81.2311649 646.533371,82.0207792 L592.221592,82.0207792 C592.419992,84.5870258 593.089583,86.9311582 594.230384,89.0532468 C595.371185,91.1753353 596.883964,93.0012911 598.768765,94.5311688 C600.653567,96.0610466 602.786337,97.2701254 605.167139,98.1584416 C607.547942,99.0467577 610.027907,99.4909091 612.607109,99.4909091 C617.071113,99.4909091 620.84066,98.6766315 623.915863,97.0480519 C626.991066,95.4194724 629.52063,93.1740403 631.504632,90.3116883 L643.408584,99.787013 C636.365377,109.262385 626.147921,114 612.755908,114 C607.200703,114 602.091975,113.136372 597.429571,111.409091 C592.767166,109.68181 588.724823,107.238977 585.30242,104.080519 C581.880017,100.922062 579.201655,97.0480749 577.267253,92.4584416 C575.332851,87.8688082 574.365665,82.6623668 574.365665,76.838961 C574.365665,71.1142571 575.332851,65.9078156 577.267253,61.2194805 C579.201655,56.5311454 581.855217,52.5337828 585.22802,49.2272727 C588.600824,45.9207627 592.593567,43.3545546 597.206372,41.5285714 C601.819176,39.7025883 606.803906,38.7896104 612.160711,38.7896104 C617.120716,38.7896104 621.708651,39.603888 625.924655,41.2324675 C630.140659,42.8610471 633.786208,45.2792047 636.86141,48.487013 C639.936613,51.6948212 642.34218,55.6921839 644.078181,60.4792208 C645.814183,65.2662577 646.682171,70.8675004 646.682171,77.2831169 Z M714.237096,69.2883117 C714.237096,67.0181705 713.9147,64.8467636 713.2699,62.774026 C712.625099,60.7012883 711.608313,58.8753326 710.219512,57.2961039 C708.830711,55.7168752 707.069936,54.4584462 704.937134,53.5207792 C702.804332,52.5831122 700.299567,52.1142857 697.422764,52.1142857 C692.065959,52.1142857 687.527623,53.7181658 683.80762,56.925974 C680.087616,60.1337823 678.029245,64.2545203 677.632445,69.2883117 L714.237096,69.2883117 Z M732.093023,77.2831169 L732.093023,79.6519481 C732.093023,80.4415624 732.043424,81.2311649 731.944224,82.0207792 L677.632445,82.0207792 C677.830845,84.5870258 678.500435,86.9311582 679.641237,89.0532468 C680.782038,91.1753353 682.294816,93.0012911 684.179618,94.5311688 C686.06442,96.0610466 688.19719,97.2701254 690.577992,98.1584416 C692.958794,99.0467577 695.438759,99.4909091 698.017962,99.4909091 C702.481966,99.4909091 706.251513,98.6766315 709.326716,97.0480519 C712.401919,95.4194724 714.931483,93.1740403 716.915485,90.3116883 L728.819437,99.787013 C721.77623,109.262385 711.558774,114 698.166761,114 C692.611556,114 687.502828,113.136372 682.840424,111.409091 C678.178019,109.68181 674.135676,107.238977 670.713273,104.080519 C667.29087,100.922062 664.612507,97.0480749 662.678106,92.4584416 C660.743704,87.8688082 659.776517,82.6623668 659.776517,76.838961 C659.776517,71.1142571 660.743704,65.9078156 662.678106,61.2194805 C664.612507,56.5311454 667.26607,52.5337828 670.638873,49.2272727 C674.011676,45.9207627 678.00442,43.3545546 682.617224,41.5285714 C687.230029,39.7025883 692.214759,38.7896104 697.571564,38.7896104 C702.531568,38.7896104 707.119504,39.603888 711.335508,41.2324675 C715.551512,42.8610471 719.19706,45.2792047 722.272263,48.487013 C725.347466,51.6948212 727.753032,55.6921839 729.489034,60.4792208 C731.225035,65.2662577 732.093023,70.8675004 732.093023,77.2831169 Z M739.086595,55.0753247 L739.086595,40.8623377 L751.585744,40.8623377 L751.585744,20.2831169 L769.144073,20.2831169 L769.144073,40.8623377 L787,40.8623377 L787,55.0753247 L769.144073,55.0753247 L769.144073,88.0909091 C769.144073,91.2493664 769.714465,93.8649247 770.855266,95.9376623 C771.996067,98.0104 774.550431,99.0467532 778.518434,99.0467532 C779.708836,99.0467532 780.998417,98.9233779 782.387219,98.6766234 C783.77602,98.4298689 785.016003,98.0597427 786.107204,97.5662338 L786.702401,111.483117 C785.1152,112.075328 783.230426,112.544154 781.048024,112.88961 C778.865622,113.235067 776.782451,113.407792 774.79845,113.407792 C770.036845,113.407792 766.1681,112.741565 763.192097,111.409091 C760.216094,110.076617 757.860127,108.250661 756.124126,105.931169 C754.388124,103.611677 753.197741,100.946768 752.55294,97.9363636 C751.908139,94.925959 751.585744,91.6935238 751.585744,88.238961 L751.585744,55.0753247 L739.086595,55.0753247 Z" id="clean-street"></path>
            <g id="Group-4" transform="translate(1.000000, 143.000000)">
                <g id="bakcijfer-invoer">
                    <rect id="Rectangle-11" x="0" y="0" width="78.3565888" height="21"></rect>
                </g>
                <g id="bakcijfer-invoer-copy" transform="translate(90.466243, 0.000000)">
                    <rect id="Rectangle-11" x="0" y="0" width="78.3565888" height="21"></rect>
                </g>
                <g id="bakcijfer-invoer-copy-2" transform="translate(180.932487, 0.000000)">
                    <rect id="Rectangle-11" x="0" y="0" width="78.3565888" height="21"></rect>
                </g>
                <g id="bakcijfer-invoer-copy-3" transform="translate(271.398730, 0.000000)">
                    <rect id="Rectangle-11" x="0" y="0" width="78.3565888" height="21"></rect>
                </g>
            </g>
        </g>
    </g>
</svg>